<svg width="25" height="36" viewBox="0 0 25 36" fill="none" xmlns="http://www.w3.org/2000/svg">
<path d="M0 17.9008C0.0316667 13.3075 1.88833 8.91083 5.16166 5.67083C8.43666 2.43083 12.865 0.609163 17.4833 0.60083H18.7633V3.36583H17.5017C13.6167 3.3675 9.89 4.89583 7.13167 7.6175C4.37333 10.3392 2.80833 14.0342 2.77667 17.8992H0V17.9008Z" fill="#9C7CFF"/>
<path d="M5.3335 35.3991V32.6341H6.61349C10.4985 32.6291 14.2235 31.0991 16.9785 28.3758C19.7335 25.6524 21.2968 21.9574 21.3268 18.0941H24.1085C24.0768 22.6891 22.2202 27.0875 18.9435 30.3275C15.6668 33.5675 11.2352 35.3891 6.61516 35.3941L5.3335 35.3991Z" fill="#9C7CFF"/>
<path d="M5.3335 30.0941V27.3291H6.61349C9.08349 27.3258 11.4535 26.3558 13.2102 24.6275C14.9668 22.8991 15.9668 20.5524 15.9952 18.0941H18.7752C18.7452 21.2841 17.4502 24.3325 15.1735 26.5775C12.8968 28.8225 9.82016 30.0841 6.61349 30.0875L5.3335 30.0941Z" fill="#9C7CFF"/>
<path d="M5.3335 17.9009C5.3635 14.7092 6.6585 11.6575 8.93683 9.41088C11.2168 7.16421 14.2952 5.90255 17.5035 5.90088H18.7835V8.66588H17.5035C15.0318 8.66588 12.6585 9.63588 10.9002 11.3642C9.14183 13.0925 8.14016 15.4409 8.11183 17.9009H5.3335Z" fill="#9C7CFF"/>
<path d="M5.32812 24.7909V22.0259H6.60813C7.6648 22.0259 8.67979 21.6142 9.43479 20.8792C10.1915 20.1442 10.6281 19.1459 10.6548 18.0959V17.9942C10.6581 16.1909 11.3815 14.4642 12.6648 13.1925C13.9481 11.9192 15.6865 11.2059 17.4998 11.2075H18.7798V13.9725H17.4998C16.4415 13.9709 15.4248 14.3809 14.6665 15.1159C13.9081 15.8509 13.4698 16.8509 13.4431 17.9025V18.0042C13.4415 19.8059 12.7215 21.5325 11.4398 22.8059C10.1598 24.0792 8.42313 24.7959 6.61146 24.7975L5.32812 24.7909Z" fill="#9C7CFF"/>
</svg>
