<svg width="36" height="28" viewBox="0 0 36 28" fill="none" xmlns="http://www.w3.org/2000/svg">
<path d="M17.9912 15.9929L17.9912 27.9504L14.8859 24.845C14.7834 24.7426 14.7062 24.6177 14.6604 24.4802L13.7317 21.6942C13.6744 21.5224 13.6799 21.3359 13.7472 21.1678C14.3923 19.555 15.4288 18.1283 16.7632 17.0163L17.9912 15.9929Z" fill="url(#paint0_linear_20351_103)"/>
<path d="M17.9912 15.9929L17.9912 27.9504L21.0966 24.845C21.199 24.7426 21.2762 24.6177 21.322 24.4802L22.2507 21.6942C22.308 21.5224 22.3025 21.3359 22.2353 21.1678C21.5902 19.555 20.5536 18.1283 19.2192 17.0163L17.9912 15.9929Z" fill="url(#paint1_linear_20351_103)"/>
<path d="M12.4287 13.27L3.97352 21.7252L3.9735 17.3336C3.9735 17.1887 4.00724 17.0458 4.07204 16.9162L5.3854 14.2895C5.46637 14.1275 5.60213 13.9995 5.76856 13.9282C7.3651 13.244 9.1069 12.968 10.8368 13.1253L12.4287 13.27Z" fill="url(#paint2_linear_20351_103)"/>
<path d="M12.4287 13.27L3.97352 21.7252L8.36513 21.7252C8.51003 21.7252 8.65293 21.6915 8.78253 21.6267L11.4093 20.3133C11.5712 20.2324 11.6992 20.0966 11.7705 19.9302C12.4548 18.3336 12.7307 16.5918 12.5734 14.862L12.4287 13.27Z" fill="url(#paint3_linear_20351_103)"/>
<path d="M23.5718 13.27L32.027 21.7252L32.027 17.3336C32.027 17.1887 31.9932 17.0458 31.9284 16.9162L30.6151 14.2895C30.5341 14.1275 30.3984 13.9995 30.2319 13.9282C28.6354 13.244 26.8936 12.968 25.1637 13.1253L23.5718 13.27Z" fill="url(#paint4_linear_20351_103)"/>
<path d="M23.5718 13.27L32.027 21.7252L27.6354 21.7252C27.4905 21.7252 27.3476 21.6915 27.218 21.6267L24.5912 20.3133C24.4293 20.2324 24.3013 20.0966 24.2299 19.9302C23.5457 18.3336 23.2698 16.5918 23.427 14.862L23.5718 13.27Z" fill="url(#paint5_linear_20351_103)"/>
<circle cx="17.9915" cy="10.1954" r="7.97169" fill="url(#paint6_linear_20351_103)" stroke="url(#paint7_linear_20351_103)" stroke-width="4.3482"/>
<circle cx="17.9911" cy="10.1953" r="2.8988" fill="#E0EBFF"/>
<defs>
<linearGradient id="paint0_linear_20351_103" x1="17.9912" y1="15.9929" x2="17.9912" y2="27.5881" gradientUnits="userSpaceOnUse">
<stop stop-color="#8100E7"/>
<stop offset="0.536458" stop-color="#3EFFF3"/>
<stop offset="1" stop-color="#00BBF5"/>
</linearGradient>
<linearGradient id="paint1_linear_20351_103" x1="17.9912" y1="15.9929" x2="17.9912" y2="27.5881" gradientUnits="userSpaceOnUse">
<stop stop-color="#1D0AFF"/>
<stop offset="0.510417" stop-color="#00C2FF"/>
</linearGradient>
<linearGradient id="paint2_linear_20351_103" x1="12.4287" y1="13.27" x2="4.22967" y2="21.4691" gradientUnits="userSpaceOnUse">
<stop stop-color="#8100E7"/>
<stop offset="0.536458" stop-color="#3EFFF3"/>
<stop offset="1" stop-color="#00BBF5"/>
</linearGradient>
<linearGradient id="paint3_linear_20351_103" x1="12.4287" y1="13.27" x2="4.22967" y2="21.4691" gradientUnits="userSpaceOnUse">
<stop stop-color="#1D0AFF"/>
<stop offset="0.510417" stop-color="#00C2FF"/>
</linearGradient>
<linearGradient id="paint4_linear_20351_103" x1="23.5718" y1="13.27" x2="31.7708" y2="21.4691" gradientUnits="userSpaceOnUse">
<stop stop-color="#1D0AFF"/>
<stop offset="0.510417" stop-color="#00C2FF"/>
</linearGradient>
<linearGradient id="paint5_linear_20351_103" x1="23.5718" y1="13.27" x2="31.7708" y2="21.4691" gradientUnits="userSpaceOnUse">
<stop stop-color="#8100E7"/>
<stop offset="0.536458" stop-color="#3EFFF3"/>
<stop offset="1" stop-color="#00BBF5"/>
</linearGradient>
<linearGradient id="paint6_linear_20351_103" x1="17.9915" y1="0.0495605" x2="17.9915" y2="20.3411" gradientUnits="userSpaceOnUse">
<stop stop-color="#232323"/>
<stop offset="0.489583" stop-color="#202947"/>
<stop offset="1" stop-color="#232323"/>
</linearGradient>
<linearGradient id="paint7_linear_20351_103" x1="17.9915" y1="0.0495605" x2="17.9915" y2="20.3411" gradientUnits="userSpaceOnUse">
<stop stop-color="#57FFD7"/>
<stop offset="0.510417" stop-color="#E95FFF"/>
<stop offset="1" stop-color="#01FFFF"/>
</linearGradient>
</defs>
</svg>
