<svg xmlns="http://www.w3.org/2000/svg" version="1.1" xmlns:xlink="http://www.w3.org/1999/xlink" width="512" height="512" x="0" y="0" viewBox="0 0 72 72" style="enable-background:new 0 0 512 512" xml:space="preserve" class=""><g><path d="M4.585 38.789c.34 2.661 1.764 4.595 4.413 4.86 2.963.322 5.586-.107 8.592-.36 3.425 2.675 6.19 4.429 9.522 7.072a.747.747 0 0 0 1.212-.576l1.454-1.994c-.418-1.92-.777-4.047-1.184-6.001 1.975.067 2.71.116 4.065-.04.17 5.422 3.364 10.425 8.06 13.017-.56 3.553-1.544 6.235-.173 8.1a.747.747 0 0 0 1.24.31c2.394-2.363 4.96-4.812 7.708-6.508l.019-.013c4.062 1.177 7.782 2.213 11.576.252 11.337-5.86 9.996-23.465-5.043-29.657-3.69-1.526-7.722-1.876-11.393-1.011.91-5.773-1.69-9.679-4.124-10.605-1.068-.89-4.666-1.093-5.667-1.008-9.459.848-18.075-.076-27.218 2.762-4 1.257-4.41 3.094-4.205 5.98.11 1.529.097 7.177 1.146 15.42zm50.888-10.152C66 32.972 68.535 44.747 60.915 51.628c-3.28 2.976-7.9 4.12-11.507 3.487a.692.692 0 0 0-.666.253c-.02.012-.038.025-.057.038-2.076 1.281-4.035 2.957-5.891 4.707.45-1.856.704-3.693.774-4.959.05-.92-1.546-1.311-2.355-1.84-4.439-2.555-7.263-7.654-7.055-12.408.315-10.425 10.966-16.548 21.315-12.269zM8.091 18.82c8.88-2.756 17.48-1.855 26.904-2.699.801-.073 4.127.162 4.642.72 1.106 1.567-.262 10.093-.443 11.817-3.725 2.649-6.165 7.009-6.496 11.579-2.153.296-3.993-.067-8.009-.013a.75.75 0 0 0-.692 1.014c.823 2.194 1.368 4.251 2.06 6.419-2.721-2.035-5.163-3.656-7.982-5.89a.742.742 0 0 0-.983.062c-2.826.255-5.295.616-7.939.329-1.996-.201-2.829-1.58-3.08-3.559-1.063-8.342-1-13.398-1.138-15.336-.158-2.228-.195-3.388 3.156-4.443z" fill="#ffffff" opacity="1" data-original="#000000" class=""></path><path d="M17.304 22.494c1.184-.634 2.33-.954 3.405-.954h.004c1.204 0 2.314.427 3.046 1.17 1.685 1.712 1.49 4.2-3.546 5.764-4.007 1.25-1.491 4.102-1.794 5.319a.75.75 0 0 0 1.456.361c.562-2.26-1.935-3.4.85-4.268 5.963-1.855 6.604-5.688 4.103-8.228-1.011-1.027-2.51-1.617-4.114-1.618h-.005c-1.324 0-2.707.38-4.112 1.13a.75.75 0 0 0 .707 1.324zM55.788 32.915l-4.256-2.07c-1.157 4.832-2.69 9.916-4.573 14.515.34.241.717.519 1.056.76 2.204-4.564 4.786-9.11 7.773-13.205zM46.194 49.812c.944 0 1.709-.728 1.709-1.625s-.765-1.625-1.709-1.625c-.943 0-1.708.727-1.708 1.625s.765 1.625 1.708 1.625z" fill="#ffffff" opacity="1" data-original="#000000" class=""></path><ellipse cx="19.361" cy="37.187" rx="1.314" ry="1.25" fill="#ffffff" opacity="1" data-original="#000000" class=""></ellipse><path d="m45.466 9.247-.657 4.502a.75.75 0 0 0 1.484.216l.657-4.501a.75.75 0 0 0-1.484-.217zM53.656 13.444a.75.75 0 0 0-1.04-.213l-4.203 2.777a.75.75 0 0 0 .826 1.252l4.205-2.777a.751.751 0 0 0 .212-1.04zM52.776 19.289l-2.834.329a.75.75 0 0 0 .173 1.49l2.834-.33a.75.75 0 1 0-.173-1.49z" fill="#ffffff" opacity="1" data-original="#000000" class=""></path></g></svg>