<svg xmlns="http://www.w3.org/2000/svg" version="1.1" xmlns:xlink="http://www.w3.org/1999/xlink" width="512" height="512" x="0" y="0" viewBox="0 0 512 512" style="enable-background:new 0 0 512 512" xml:space="preserve" class=""><g><path d="M160 384c2.83 0 5.687-.087 8.49-.259l-.98-15.97c-2.478.152-5.005.229-7.51.229-17.895 0-34.596-3.803-47.027-10.709C102.187 351.299 96 343.538 96 336a15.287 15.287 0 0 1 .954-5.254l-15.027-5.492A31.225 31.225 0 0 0 80 336c0 26.916 35.14 48 80 48ZM24 72a32.036 32.036 0 0 1 32 32 8 8 0 0 0 16 0 32.036 32.036 0 0 1 32-32 8 8 0 0 0 0-16 32.036 32.036 0 0 1-32-32 8 8 0 0 0-16 0 32.036 32.036 0 0 1-32 32 8 8 0 0 0 0 16Zm40-21.493A48.394 48.394 0 0 0 77.493 64 48.394 48.394 0 0 0 64 77.493 48.394 48.394 0 0 0 50.507 64 48.394 48.394 0 0 0 64 50.507ZM168.975 269.865l10.88-11.73A112.014 112.014 0 0 1 311.907 78.929l7.999-13.858a128.01 128.01 0 0 0-150.931 204.794ZM256 288a112.233 112.233 0 0 1-52.261-12.913l-7.478 14.144A128.013 128.013 0 0 0 349.865 88.975l-11.73 10.88A112 112 0 0 1 256 288Z" fill="#ffffff" opacity="1" data-original="#000000" class=""></path><path d="m252.115 89.007-72 40A8 8 0 0 0 176 136v80a8 8 0 0 0 4.115 6.993l72 40a8 8 0 0 0 7.77 0l72-40A8 8 0 0 0 336 216v-80a8 8 0 0 0-4.115-6.993l-72-40a8.003 8.003 0 0 0-7.77 0ZM320 211.293l-64 35.556-64-35.556v-70.586l64-35.556 64 35.556Z" fill="#ffffff" opacity="1" data-original="#000000" class=""></path><path d="m220.422 144.845 7.156 14.31 28.072-14.036L288 164.53V192h16v-32a8.002 8.002 0 0 0-3.884-6.86l-40-24a8 8 0 0 0-7.694-.295Z" fill="#ffffff" opacity="1" data-original="#000000" class=""></path><path d="M451.712 212.841A159.86 159.86 0 0 0 456 176c0-88.225-71.776-160-160-160h-40C167.776 16 96 87.775 96 176a159.215 159.215 0 0 0 10.15 56.076c-23.997 7.477-44.814 19.764-60.706 35.957C26.182 287.663 16 311.165 16 336v56c0 28.315 15.35 54.744 43.22 74.418C86.245 485.494 122.036 496 160 496s73.755-10.506 100.78-29.582c14.421-10.18 25.48-22.17 32.804-35.293A194.048 194.048 0 0 0 352 440c37.964 0 73.755-10.506 100.78-29.582C480.65 390.744 496 364.315 496 336v-48c0-28.538-16.055-55.63-44.288-75.159ZM480 288c0 48.523-57.42 88-128 88a177.368 177.368 0 0 1-48-6.448v-16.393A167.523 167.523 0 0 0 352 360c29.24 0 56.845-7.078 77.732-19.932C451.83 326.47 464 307.978 464 288c0-16.102-8.19-31.593-23.15-44.088a158.997 158.997 0 0 0 6.07-14.78C468.074 245.264 480 266.268 480 288ZM360 391.838a196.171 196.171 0 0 0 32-3.871v31.627a179.39 179.39 0 0 1-32 4.229ZM407.686 384A162.805 162.805 0 0 0 440 370.439v29.405a140.678 140.678 0 0 1-32 15.275V384ZM409.9 88a144.098 144.098 0 0 1 18.765 32h-22.787a159.62 159.62 0 0 0-16.321-32ZM448 288c0 14.213-9.466 27.864-26.654 38.441C402.946 337.765 378.32 344 352 344a149.02 149.02 0 0 1-48-7.647V336c0-.066-.005-.134-.005-.2a160.13 160.13 0 0 0 129.11-77.406C442.752 267.31 448 277.624 448 288Zm-32.2-120a159.339 159.339 0 0 0-4.862-32h23.404a143.239 143.239 0 0 1 5.432 32Zm0 16h23.974a143.239 143.239 0 0 1-5.432 32h-23.404a159.339 159.339 0 0 0 4.862-32Zm-9.922 48h22.787a144.098 144.098 0 0 1-18.765 32h-20.343a159.62 159.62 0 0 0 16.321-32Zm-28.392 48h18.012a144.063 144.063 0 0 1-58.887 34.16A161.167 161.167 0 0 0 377.486 280Zm18.012-208h-18.012a161.167 161.167 0 0 0-40.875-34.16A144.063 144.063 0 0 1 395.498 72ZM256 32c79.402 0 144 64.598 144 144s-64.598 144-144 144-144-64.598-144-144S176.598 32 256 32ZM56.864 279.24c14.173-14.443 33.703-25.754 55.705-32.394a159.963 159.963 0 0 0 7.972 14.209C77.181 272.55 48 302.025 48 336c0 12.767 4.257 25.445 12.312 36.665l12.998-9.33C67.132 354.729 64 345.533 64 336c0-14.152 6.926-27.617 20.03-38.938 11.916-10.293 28.23-17.956 46.467-21.934a161.403 161.403 0 0 0 12.409 13.946c-16.838 2.14-32.117 7.417-43.434 15.188l9.056 13.19C120.979 308.902 139.74 304 160 304v-.081a159.345 159.345 0 0 0 63.61 28.784A14.871 14.871 0 0 1 224 336c0 11.19-13.715 22.495-34.129 28.13l4.258 15.424C222.423 371.742 240 355.054 240 336c0-.267-.01-.533-.018-.8q7.904.79 16.018.8h32c0 52.935-57.42 96-128 96S32 388.935 32 336c0-20.558 8.598-40.185 24.864-56.76ZM72 424.735a156.57 156.57 0 0 0 32 14.528v31.856a140.678 140.678 0 0 1-32-15.275Zm48 18.912a182.473 182.473 0 0 0 32 4.178v31.998a179.39 179.39 0 0 1-32-4.229Zm48 4.178a182.473 182.473 0 0 0 32-4.178v31.947a179.39 179.39 0 0 1-32 4.229Zm48-8.562a156.57 156.57 0 0 0 32-14.528v31.11a140.678 140.678 0 0 1-32 15.274ZM32 392v-4.476a117.368 117.368 0 0 0 24 26.022v29.695C40.903 428.8 32 411.102 32 392Zm232 51.241v-29.695a117.368 117.368 0 0 0 24-26.022V392c0 19.102-8.903 36.8-24 51.241ZM304 392v-5.88a192.508 192.508 0 0 0 40 5.722v31.984a176.686 176.686 0 0 1-43.928-7.44A77.93 77.93 0 0 0 304 392Zm176-56c0 19.102-8.903 36.8-24 51.241v-27.177a112.265 112.265 0 0 0 24-24.15Z" fill="#ffffff" opacity="1" data-original="#000000" class=""></path><path d="m98.537 385.021-7.82 13.96C110.594 410.114 134.552 416 160 416c46.938 0 89.218-21.043 105.207-52.362l-14.25-7.276C237.631 382.462 201.079 400 160 400c-22.393 0-44.22-5.32-61.463-14.979ZM352 464a211.12 211.12 0 0 1-38.536-3.504l-2.928 15.73A227.21 227.21 0 0 0 352 480c36.801 0 72.7-8.896 101.085-25.047l-7.913-13.906C419.161 455.849 386.072 464 352 464ZM459.22 431.897l9.56 12.829a129.748 129.748 0 0 0 17.054-15.14l-11.667-10.948a113.701 113.701 0 0 1-14.948 13.26ZM62.301 126.006a199.895 199.895 0 0 0-3.536 16.67l15.78 2.648a183.903 183.903 0 0 1 3.251-15.33ZM56.684 159.343A203.528 203.528 0 0 0 56 176a200.7 200.7 0 0 0 6.301 49.994l15.495-3.988A184.686 184.686 0 0 1 72 176c0-5.11.212-10.272.63-15.343Z" fill="#ffffff" opacity="1" data-original="#000000" class=""></path></g></svg>