<svg xmlns="http://www.w3.org/2000/svg" viewBox="0 0 1920 1080"><g transform="
          rotate(1 960 540) 
          translate(-29.639227669766115 -16.67206556424344)
          scale(1.0308741954893397)
        "><rect width="1920" height="1080" fill="rgb(30, 160, 252)"></rect><g transform="translate(0, 0)"><path fill="rgb(20, 107, 168)" fill-opacity="1" d="M0,352.943L40,350.075C80,347.207,160,341.471,240,340.581C320,339.692,400,343.65,480,344.095C560,344.54,640,341.472,720,303.183C800,264.894,880,191.383,960,185.175C1040,178.967,1120,240.06,1200,221.336C1280,202.612,1360,104.069,1440,98.48C1520,92.892,1600,180.258,1680,202.019C1760,223.78,1840,179.937,1880,158.015L1920,136.093L1920,1080L1880,1080C1840,1080,1760,1080,1680,1080C1600,1080,1520,1080,1440,1080C1360,1080,1280,1080,1200,1080C1120,1080,1040,1080,960,1080C880,1080,800,1080,720,1080C640,1080,560,1080,480,1080C400,1080,320,1080,240,1080C160,1080,80,1080,40,1080L0,1080Z"></path></g><g transform="translate(0, 360)"><path fill="rgb(10, 53, 84)" fill-opacity="1" d="M0,24.136L40,62.059C80,99.983,160,175.829,240,189.505C320,203.181,400,154.687,480,130.414C560,106.141,640,106.09,720,141.274C800,176.458,880,246.877,960,284.697C1040,322.517,1120,327.739,1200,284.675C1280,241.611,1360,150.263,1440,112.623C1520,74.983,1600,91.052,1680,126.273C1760,161.493,1840,215.866,1880,243.052L1920,270.238L1920,720L1880,720C1840,720,1760,720,1680,720C1600,720,1520,720,1440,720C1360,720,1280,720,1200,720C1120,720,1040,720,960,720C880,720,800,720,720,720C640,720,560,720,480,720C400,720,320,720,240,720C160,720,80,720,40,720L0,720Z"></path></g><g transform="translate(0, 720)"><path fill="rgb(0, 0, 0)" fill-opacity="1" d="M0,337.906L40,311.792C80,285.679,160,233.452,240,180.313C320,127.174,400,73.123,480,43.365C560,13.606,640,8.141,720,41.079C800,74.017,880,145.358,960,167.782C1040,190.206,1120,163.713,1200,136.177C1280,108.642,1360,80.062,1440,72.255C1520,64.448,1600,77.412,1680,86.608C1760,95.804,1840,101.232,1880,103.946L1920,106.659L1920,360L1880,360C1840,360,1760,360,1680,360C1600,360,1520,360,1440,360C1360,360,1280,360,1200,360C1120,360,1040,360,960,360C880,360,800,360,720,360C640,360,560,360,480,360C400,360,320,360,240,360C160,360,80,360,40,360L0,360Z"></path></g></g></svg>