<svg xmlns="http://www.w3.org/2000/svg" viewBox="0 0 1920 1080"><g transform="
          rotate(0 960 540) 
          translate(-0 -0)
          scale(1)
        "><rect width="1920" height="1080" fill="rgb(102, 74, 255)"></rect><g transform="translate(0, 0)"><path fill="rgb(26, 0, 143)" fill-opacity="1" d="M0,1058.83L80,1050.225C160,1041.621,320,1024.412,480,1021.744C640,1019.076,800,1030.95,960,1032.285C1120,1033.62,1280,1024.417,1440,909.549C1600,794.682,1760,574.15,1840,463.884L1920,353.618L1920,1080L1840,1080C1760,1080,1600,1080,1440,1080C1280,1080,1120,1080,960,1080C800,1080,640,1080,480,1080C320,1080,160,1080,80,1080L0,1080Z"></path></g></g></svg>